<svg width="23" height="23" viewBox="0 0 23 23" fill="none" xmlns="http://www.w3.org/2000/svg">
<path d="M11.0446 15.8789C7.83421 15.8789 6.25821 17.6502 4.43361 19.7046C4.26726 19.892 4.09736 20.0829 3.92746 20.2703C5.84687 21.9636 8.32995 22.9819 11.0443 22.9819C13.7585 22.9819 16.2452 21.9636 18.1679 20.2701C17.9914 20.0826 17.8281 19.8917 17.6617 19.7043C15.8374 17.6502 14.2611 15.8789 11.0441 15.8789H11.0446Z" fill="#FE8189"/>
<path d="M11.0446 7.10663C14.2616 7.10663 15.8345 5.32823 17.6622 3.2776C17.8286 3.09016 17.9918 2.89928 18.1684 2.71185C16.249 1.01831 13.7623 0 11.0448 0C8.32708 0 5.84727 1.01831 3.92792 2.71185C4.09782 2.89929 4.26772 3.09017 4.43407 3.2776C6.25818 5.33196 7.83449 7.10663 11.045 7.10663H11.0446Z" fill="#FE8189"/>
<path d="M19.4997 4.10526C19.3468 4.27149 19.1973 4.44116 19.0445 4.61084C17.1898 6.70391 15.087 9.07624 11.0407 9.07624C7.00144 9.07624 4.89865 6.70398 3.03693 4.61084C2.88409 4.43771 2.73456 4.27149 2.58172 4.10872C0.967987 6.10639 0 8.68012 0 11.4912C0 14.2985 0.968229 16.8759 2.58172 18.8698C2.73456 18.7073 2.88409 18.5411 3.03693 18.3677C4.89519 16.2746 7.00132 13.9093 11.0407 13.9093C15.0833 13.9093 17.1894 16.2781 19.0445 18.3677C19.1973 18.5408 19.3468 18.7071 19.4997 18.8733C21.1134 16.8756 22.0882 14.3019 22.0882 11.4908C22.0882 8.68029 21.1134 6.10284 19.4997 4.10522V4.10526Z" fill="#FE8189"/>
</svg>
