<svg width="25" height="27" viewBox="0 0 25 27" fill="none" xmlns="http://www.w3.org/2000/svg">
<path d="M11.8439 7.34973C11.8125 7.37075 11.7822 7.39368 11.7532 7.41814C11.6157 7.5305 11.4782 7.64822 11.3573 7.77147L11.3326 7.7988C11.2254 7.92473 11.1264 8.05639 11.0301 8.19054L11.0136 8.21519C10.9697 8.29182 10.9285 8.36864 10.8872 8.45348L10.8652 8.50011V8.5003C10.8291 8.56814 10.7988 8.63865 10.7745 8.71127C10.747 8.79344 10.7223 8.87561 10.7029 8.95778L10.6726 9.08103C10.665 9.12097 10.6594 9.16129 10.6561 9.20161V9.23181C10.6329 9.40264 10.6329 9.57597 10.6561 9.74678V9.79341C10.6644 9.858 10.6763 9.92202 10.692 9.98508V10.0179C10.7085 10.0755 10.725 10.133 10.7388 10.1685L10.7386 10.1687C10.776 10.2828 10.8247 10.3931 10.8844 10.4974L10.9147 10.5522C10.9726 10.6478 11.0369 10.7391 11.107 10.8261L11.1291 10.8507L11.1565 10.8809C11.2127 10.9428 11.2724 11.0015 11.3353 11.0563L11.3627 11.0783L11.3629 11.0781C11.413 11.1202 11.4651 11.1595 11.5196 11.196C11.6065 11.2551 11.6985 11.3065 11.7944 11.3495L11.8274 11.3632V11.3631C11.8788 11.3854 11.9323 11.403 11.987 11.4152H12.0008C12.1128 11.4383 12.2294 11.4112 12.3198 11.3413C12.4051 11.2746 12.4581 11.175 12.4653 11.0672V10.9577V10.8289L12.4874 10.6071L12.5177 10.4372C12.5369 10.3503 12.5655 10.2658 12.6029 10.1852C12.6167 10.1605 12.6303 10.1359 12.6414 10.1139L12.6606 10.0892L12.6909 10.0508L12.7431 9.99884L12.8146 9.94686H12.8311L12.9245 9.88667L12.9247 9.88647C12.969 9.86316 13.0121 9.83755 13.0538 9.80985C13.1134 9.78653 13.1706 9.75711 13.2243 9.72213L13.3206 9.67283L13.4773 9.59066L13.7962 9.41524C14.0908 9.23351 14.3553 9.00706 14.5799 8.74411C14.8171 8.46721 14.9982 8.14733 15.1133 7.80181C15.2201 7.48345 15.265 7.14771 15.2452 6.8127C15.2287 6.53046 15.1654 6.25282 15.0582 5.9908C14.9119 5.63021 14.6821 5.30915 14.3873 5.05408C14.3117 4.98815 14.2308 4.92873 14.1455 4.87599L14.1098 4.85401H14.1096C14.0659 4.82573 14.0198 4.80108 13.9723 4.78006C13.8656 4.73802 13.7458 4.7449 13.6451 4.79917C13.5419 4.85611 13.4709 4.9572 13.4525 5.0732L13.4333 5.18556C13.4333 5.21289 13.4333 5.24862 13.4141 5.28971L13.3894 5.41296H13.3892C13.3422 5.65393 13.277 5.89107 13.194 6.12249C13.1546 6.23104 13.105 6.33556 13.0455 6.43474C12.9956 6.51596 12.9366 6.59143 12.8696 6.65927C12.8 6.72921 12.7256 6.79437 12.647 6.85381C12.5589 6.91954 12.46 6.98795 12.3501 7.05655L12.1822 7.13872L12.1383 7.16605L12.0697 7.20981L11.9239 7.30841L11.8439 7.34973ZM12.0447 2.51987C12.1391 2.97086 12.1466 3.4358 12.0668 3.88963C11.9757 4.38553 11.7889 4.85903 11.5167 5.28404C11.2609 5.6905 10.9427 6.05472 10.5737 6.36331L10.1667 6.67288L9.96588 6.82078L9.83124 6.91671H9.83143C9.76584 6.97634 9.69392 7.02888 9.61681 7.07283C9.56081 7.12271 9.50212 7.16934 9.44094 7.21253C9.40527 7.24807 9.36403 7.2838 9.32279 7.31667L9.29249 7.34132C9.26564 7.37209 9.23725 7.40133 9.20714 7.42903C9.20714 7.42903 9.19065 7.44547 9.1824 7.45636L9.11086 7.54675C9.10031 7.5693 9.08823 7.59128 9.07519 7.61249L9.05313 7.6509V7.67822C9.05313 7.71377 9.03107 7.74663 9.01458 7.78505H9.01477C8.97354 7.91977 8.94764 8.0585 8.93767 8.19876V8.45081L8.92674 8.78236C8.92674 8.86185 8.92674 8.93026 8.94323 8.97956L8.96241 9.13014C8.9766 9.2448 8.94074 9.36003 8.86402 9.4464C8.7873 9.53277 8.67683 9.58226 8.56098 9.58226H8.53068H8.53087C8.45933 9.57538 8.38837 9.56258 8.31913 9.54385H8.27789C8.13596 9.5064 7.99787 9.45595 7.86534 9.39327C7.78249 9.35372 7.70174 9.30996 7.62349 9.2618L7.58494 9.23983C7.48942 9.17963 7.39755 9.1139 7.3099 9.04262L7.26042 9.00421L7.23567 8.98223C7.12424 8.87962 7.01952 8.76974 6.92228 8.65355L6.8728 8.58781C6.77326 8.46054 6.68676 8.32392 6.61426 8.17964C6.58683 8.12766 6.55384 8.05638 6.52086 7.97956L6.50168 7.93294V7.93313C6.46926 7.85249 6.44183 7.77032 6.4192 7.68643L6.40003 7.61802H6.39983C6.33424 7.39176 6.29914 7.15767 6.29531 6.92223V6.86471C6.29262 6.81254 6.29262 6.76056 6.29531 6.7084L6.3118 6.53297C6.3118 6.41526 6.33923 6.29736 6.36128 6.17678V6.17697C6.37893 6.0755 6.40463 5.97575 6.43838 5.87848L6.46044 5.8072C6.49899 5.68663 6.54023 5.57159 6.58415 5.45655L6.59796 5.42635C6.69961 5.22093 6.81526 5.01551 6.93609 4.81808L6.95815 4.78522C7.1066 4.58801 7.26886 4.39615 7.43649 4.21271C7.46909 4.17506 7.504 4.13933 7.54101 4.10589L7.64267 4.00996C7.7004 3.95511 7.76369 3.90046 7.82698 3.84294L7.93688 3.74434L7.96162 3.72236L8.19811 3.53337C8.34387 3.41012 8.47314 3.28953 8.5886 3.1745C8.69255 3.06902 8.78903 2.95646 8.87725 2.8376C8.96394 2.71836 9.03683 2.58956 9.09437 2.45408C9.1615 2.29395 9.21309 2.12788 9.24838 1.95818C9.31915 1.60771 9.36326 1.25227 9.38033 0.895153V0.714379V0.552714V0.396591C9.38321 0.270852 9.44439 0.153327 9.54624 0.0788028C9.64789 0.00427833 9.77869 -0.0190369 9.9001 0.0159311C9.96684 0.0333206 10.0322 0.0562518 10.0953 0.0843406L10.1475 0.106316C10.2724 0.160779 10.3928 0.224795 10.5077 0.297984C10.9592 0.586342 11.3361 0.976943 11.6076 1.43767C11.8125 1.7717 11.9602 2.13747 12.0447 2.51983L12.0447 2.51987ZM23.9534 18.0749C24.2919 16.7193 23.985 15.2838 23.1216 14.1833C22.2581 13.0828 20.9341 12.4395 19.5322 12.4395H1.19784C0.868916 12.4392 0.554393 12.5737 0.328044 12.8116C0.101724 13.0495 -0.0162284 13.3698 0.00180098 13.6972C0.146031 15.8735 0.520244 18.0287 1.11823 20.1267C1.5676 21.7011 2.45276 23.1175 3.67254 24.214H2.09423C1.61935 24.214 1.18034 24.4666 0.942894 24.8763C0.705453 25.2862 0.705453 25.7911 0.942894 26.201C1.18034 26.6107 1.61934 26.8631 2.09423 26.8631H17.0466C17.5216 26.8631 17.9604 26.6107 18.1979 26.201C18.4353 25.7911 18.4353 25.2862 18.1979 24.8763C17.9605 24.4666 17.5216 24.214 17.0466 24.214H15.4656C16.3095 23.4549 16.9969 22.5395 17.4892 21.5184H19.5322C20.5491 21.5184 21.5369 21.1794 22.3382 20.5553C23.1393 19.9314 23.708 19.0581 23.9535 18.0749L23.9534 18.0749ZM21.2753 17.4118C21.1814 17.802 20.9583 18.1494 20.6422 18.3978C20.3259 18.6464 19.9349 18.7816 19.5321 18.7816H18.369C18.649 17.6012 18.8612 16.4057 19.0041 15.2011H19.5321C20.0851 15.2007 20.6071 15.4543 20.9477 15.8882C21.2882 16.3222 21.409 16.8882 21.2753 17.4229L21.2753 17.4118Z" fill="#B573D5"/>
</svg>
