<svg width="29" height="29" viewBox="0 0 29 29" fill="none" xmlns="http://www.w3.org/2000/svg">
<path d="M23.7559 22.613L19.4747 18.3279C20.6293 16.9215 21.3189 15.1199 21.3189 13.1595C21.3189 8.65355 17.6654 5 13.1595 5C8.65355 5 5 8.65355 5 13.1595C5 17.6654 8.65355 21.3189 13.1595 21.3189C15.1277 21.3189 16.9331 20.6215 18.3434 19.4592L22.6246 23.7404C23.1244 24.1976 23.5932 23.9031 23.7559 23.7404C24.0814 23.4188 24.0814 22.9345 23.7559 22.613ZM6.59237 13.1595C6.59237 9.53303 9.53303 6.59237 13.1595 6.59237C16.7859 6.59237 19.7304 9.53303 19.7304 13.1595C19.7304 16.7859 16.7898 19.7265 13.1633 19.7265C9.53691 19.7265 6.59237 16.7859 6.59237 13.1595Z" fill="black"/>
</svg>
