<svg width="25" height="25" viewBox="0 0 25 25" fill="none" xmlns="http://www.w3.org/2000/svg">
<path d="M20.964 5.83948C18.8398 3.71526 15.4976 3.56136 13.1871 5.48323C13.1844 5.48558 12.8863 5.73012 12.5 5.73012C12.1039 5.73012 11.8211 5.49027 11.8101 5.48088C9.50235 3.56136 6.16015 3.71526 4.03593 5.83948C2.94492 6.9305 2.34375 8.38128 2.34375 9.92463C2.34375 11.468 2.94492 12.9188 4.01523 13.9871L10.718 21.8343C11.1641 22.3567 11.8137 22.6563 12.5 22.6563C13.1867 22.6563 13.8359 22.3567 14.282 21.8348L20.9637 14.0102C23.2168 11.7574 23.2168 8.09222 20.964 5.83948ZM20.391 13.4801L13.6883 21.3273C13.391 21.675 12.9578 21.875 12.5 21.875C12.0422 21.875 11.6094 21.6755 11.3117 21.3273L4.58867 13.4574C3.64492 12.5137 3.125 11.259 3.125 9.92463C3.125 8.58987 3.64492 7.33558 4.58828 6.39183C5.56602 5.4137 6.84258 4.91878 8.12227 4.91878C9.2457 4.91878 10.3715 5.30042 11.2996 6.0723C11.3496 6.11722 11.8098 6.51137 12.5 6.51137C13.1711 6.51137 13.643 6.1219 13.6894 6.08167C15.6851 4.42152 18.575 4.55512 20.4117 6.39183C22.3598 8.33988 22.3598 11.5094 20.391 13.4801Z" fill="#535353"/>
</svg>
