<svg width="36" height="30" viewBox="0 0 36 30" fill="none" xmlns="http://www.w3.org/2000/svg">
<path d="M4.48175 19.262V20.662C4.48175 21.3619 4.90954 22.0232 5.57064 22.2953C5.80393 22.3732 5.99843 22.412 6.23171 22.412C6.62071 22.412 6.97066 22.2953 7.28177 22.062C7.28177 24.2397 9.07079 26.0287 11.2095 26.0287L11.2097 27.3897C11.2097 28.0896 11.6375 28.7509 12.2986 29.023C12.5319 29.1009 12.7264 29.1397 12.9597 29.1397C13.4263 29.1397 13.8541 28.9452 14.2043 28.634L16.8485 25.9897H31.5874C33.765 25.9897 35.5541 24.2007 35.5541 22.023V11.4453C35.5541 9.26763 33.765 7.47861 31.5874 7.47861H28.7874V4.67863C28.7874 2.50093 26.9983 0.711914 24.8207 0.711914H4.52077C2.34308 0.750976 0.554062 2.50093 0.554062 4.67863V15.2952C0.554062 17.4729 2.34308 19.2619 4.48175 19.2619L4.48175 19.262ZM31.5871 9.42317C32.676 9.42317 33.6094 10.3175 33.6094 11.4455V22.0621C33.6094 23.1509 32.7151 24.0843 31.5871 24.0843H16.4595C16.1871 24.0843 15.9538 24.201 15.7596 24.3567L13.1541 26.9622V25.0566C13.1541 24.5122 12.7263 24.0844 12.1818 24.0844H11.2096C10.1207 24.0844 9.18735 23.19 9.18735 22.0621V20.1565L10.0817 19.2621H24.8205C26.9982 19.2621 28.7872 17.4731 28.7872 15.2954V9.42331L31.5871 9.42317ZM2.49843 4.67876C2.49843 3.58988 3.3928 2.65648 4.52071 2.65648H24.8595C25.9484 2.65648 26.8818 3.55085 26.8818 4.67876V15.2954C26.8818 16.3842 25.9874 17.3176 24.8595 17.3176H9.73179C9.45944 17.3176 9.22615 17.4343 9.03193 17.59L6.46549 20.1564V18.2508C6.46549 17.7064 6.0377 17.2786 5.49328 17.2786H4.52106C3.43218 17.2786 2.49878 16.3842 2.49878 15.2563L2.49843 4.67876Z" fill="white"/>
</svg>
