<svg width="26" height="20" viewBox="0 0 26 20" fill="none" xmlns="http://www.w3.org/2000/svg">
<path d="M0.500139 0H24.9C25.1762 0 25.4001 0.27623 25.4001 0.500139V3.00012C25.4001 3.27635 25.1762 3.50026 24.9 3.50026H0.500139C0.223909 3.50026 0 3.22403 0 3.00012V0.500139C0 0.223909 0.223909 0 0.500139 0Z" fill="#F7F7F7"/>
<path d="M0.500139 8.25H24.9C25.1762 8.25 25.4001 8.52623 25.4001 8.75014V11.2501C25.4001 11.5264 25.1762 11.7503 24.9 11.7503H0.500139C0.223909 11.7503 0 11.474 0 11.2501V8.75014C0 8.47391 0.223909 8.25 0.500139 8.25Z" fill="#F7F7F7"/>
<path d="M0.500139 16.4998H24.9C25.1762 16.4998 25.4001 16.776 25.4001 16.9999V19.4999C25.4001 19.7761 25.1762 20 24.9 20H0.500139C0.223909 20 0 19.7238 0 19.4999V16.9999C0 16.7237 0.223909 16.4998 0.500139 16.4998Z" fill="#F7F7F7"/>
</svg>
