<svg width="33" height="33" viewBox="0 0 33 33" fill="none" xmlns="http://www.w3.org/2000/svg">
<path d="M16.5 1.83571C20.3893 1.83571 24.1192 3.38066 26.8694 6.13066C29.6197 8.88066 31.1644 12.6108 31.1644 16.5001C31.1644 20.3894 29.6194 24.1192 26.8694 26.8695C24.1194 29.6198 20.3893 31.1645 16.5 31.1645C12.6107 31.1645 8.88085 29.6195 6.13057 26.8695C3.3803 24.1195 1.83562 20.3894 1.83562 16.5001C1.83562 12.6108 3.38057 8.88093 6.13057 6.13066C8.88057 3.38038 12.6107 1.83571 16.5 1.83571ZM16.5 8.25e-05C12.1239 8.25e-05 7.92715 1.73849 4.83257 4.83266C1.73827 7.92696 0 12.124 0 16.5001C0 20.8762 1.73841 25.0729 4.83257 28.1675C7.92687 31.2618 12.1239 33.0001 16.5 33.0001C20.8761 33.0001 25.0729 31.2617 28.1674 28.1675C31.2617 25.0732 33 20.8762 33 16.5001C33 13.6038 32.2376 10.7584 30.7895 8.25008C29.3412 5.74178 27.2582 3.65896 24.7499 2.21053C22.2416 0.762382 19.3962 0 16.4999 0L16.5 8.25e-05Z" fill="white"/>
<path d="M16.5 20.0475C14.7577 20.0475 13.087 19.3554 11.855 18.1235C10.623 16.8916 9.93093 15.2209 9.93093 13.4785C9.93093 11.7361 10.6231 10.0655 11.855 8.83346C13.0869 7.60146 14.7576 6.90942 16.5 6.90942C18.2424 6.90942 19.913 7.60154 21.145 8.83346C22.377 10.0654 23.0691 11.7361 23.0691 13.4785C23.0677 15.2203 22.3751 16.8904 21.1435 18.1221C19.9118 19.3537 18.2417 20.0463 16.4999 20.0477L16.5 20.0475ZM16.5 8.76567C15.2433 8.76567 14.038 9.26496 13.1494 10.1536C12.2608 11.0423 11.7615 12.2476 11.7615 13.5042C11.7615 14.7608 12.2608 15.9662 13.1494 16.8548C14.0381 17.7434 15.2434 18.2427 16.5 18.2427C17.7566 18.2427 18.962 17.7434 19.8506 16.8548C20.7392 15.9661 21.2385 14.7608 21.2385 13.5042C21.2371 12.2479 20.7375 11.0434 19.8491 10.1549C18.9607 9.26656 17.7562 8.76694 16.4999 8.76556L16.5 8.76567Z" fill="white"/>
<path d="M25.4152 27.0085C25.1451 27.0087 24.8885 26.8899 24.714 26.6836C23.6823 25.5299 22.4154 24.6108 20.9984 23.9882C19.5815 23.3656 18.0477 23.0539 16.5 23.0742C14.9525 23.0539 13.4186 23.3656 12.0015 23.9882C10.5845 24.6108 9.31771 25.5299 8.28602 26.6836C8.07419 26.9341 7.74471 27.0526 7.42192 26.9944C7.09901 26.9363 6.83163 26.7102 6.72067 26.4014C6.60959 26.0927 6.67168 25.7482 6.88352 25.4977C8.08975 24.1443 9.5725 23.0656 11.2315 22.3344C12.8906 21.6032 14.6872 21.2365 16.5 21.2593C18.3128 21.2365 20.1094 21.6032 21.7684 22.3344C23.4275 23.0656 24.9103 24.1443 26.1165 25.4977C26.2681 25.6769 26.3454 25.9073 26.3323 26.1417C26.3193 26.376 26.2169 26.5964 26.0463 26.7577C25.8759 26.9189 25.65 27.0087 25.4152 27.0085L25.4152 27.0085Z" fill="white"/>
</svg>
