<svg width="30" height="27" viewBox="0 0 30 27" fill="none" xmlns="http://www.w3.org/2000/svg">
<path d="M29.629 26.0353H20.3283C20.0737 26.0353 17.7926 25.9896 16.0437 24.5284L16.0018 24.4908L0 9.91156L1.89888 7.75977L17.8769 22.3179C18.8552 23.1211 20.3206 23.1456 20.3351 23.1472H29.6294L29.629 26.0353Z" fill="#57C068"/>
<path d="M29.6289 21.144H20.5845C20.5845 21.144 19.4689 21.144 18.3889 20.1056L3.29346 6.35805C3.29346 6.35805 6.83978 1.52294 7.82262 1.00051C8.87162 0.444616 9.60349 0.474898 10.0044 0.576071C10.2425 0.634804 10.6536 1.06176 10.9515 1.69199C11.3234 2.48212 11.7946 3.67581 12.7169 4.6096C14.3743 6.28806 18.8851 5.4846 18.8851 5.4846C18.8851 5.4846 19.5823 5.27238 19.7894 6.35731L22.5619 13.6666C22.5619 13.6666 23.048 15.0512 24.0786 15.3923C25.5408 15.879 29.2362 17.0561 29.7527 19.3563C29.9595 20.2672 29.629 21.144 29.629 21.144L29.6289 21.144Z" fill="#57C068"/>
</svg>
